<svg xmlns="http://www.w3.org/2000/svg" width="1200" height="360" viewBox="0 0 1200 360" role="img" aria-labelledby="title desc">
<title id="title">Bibhu Prasad Sahu — Frontend Engineer</title>
<desc id="desc">React, Redux and JavaScript. Thoughtful interfaces. Maintainable systems.</desc>
<defs><linearGradient id="bg" x2="1" y2="1"><stop stop-color="#0B1220"/><stop offset="1" stop-color="#172B3D"/></linearGradient></defs>
<rect width="1200" height="360" rx="20" fill="url(#bg)"/>
<g fill="none" stroke="#32485F"><path d="M900 0v360M980 0v360M1060 0v360M1140 0v360M840 60h360M840 140h360M840 220h360M840 300h360" opacity=".45"/><rect x="908" y="82" width="216" height="192" rx="18" transform="rotate(-9 1016 178)"/><rect x="936" y="105" width="160" height="146" rx="14" transform="rotate(9 1016 178)"/></g>
<rect x="60" y="53" width="42" height="4" rx="2" fill="#67E8F9"/>
<text x="60" y="95" font-family="Arial, Helvetica, sans-serif" font-size="16" letter-spacing="4" fill="#67E8F9">FRONTEND ENGINEER</text>
<text x="56" y="164" font-family="Arial, Helvetica, sans-serif" font-size="53" font-weight="700" letter-spacing="-1.5" fill="#F8FAFC">Bibhu Prasad Sahu</text>
<text x="60" y="213" font-family="Arial, Helvetica, sans-serif" font-size="23" fill="#C3CEDB">Thoughtful interfaces. Maintainable systems.</text>
<path d="M60 249h710" stroke="#34475A"/>
<text x="60" y="290" font-family="Arial, Helvetica, sans-serif" font-size="17" letter-spacing="1.5" fill="#A5B4FC">REACT  /  REDUX  /  JAVASCRIPT</text>
<text x="972" y="193" font-family="monospace" font-size="42" fill="#67E8F9">&lt;/&gt;</text>
</svg>
